<?xml version="1.0" encoding="UTF-8"?>
<svg width="420px" height="130px" viewBox="0 0 420 130" version="1.1" xmlns="http://www.w3.org/2000/svg" xmlns:xlink="http://www.w3.org/1999/xlink">
    <!-- Generator: Sketch 41.2 (35397) - http://www.bohemiancoding.com/sketch -->
    <title>Artboard</title>
    <desc>Created with Sketch.</desc>
    <defs>
        <polygon id="path-1" points="382.960856 94.94 0 94.94 0 0.412159483 382.960856 0.412159483 382.960856 94.94"></polygon>
    </defs>
    <g id="Page-1" stroke="none" stroke-width="1" fill="none" fill-rule="evenodd">
        <g id="Artboard">
            <g id="Prion-logotype-vit" transform="translate(19.000000, 18.000000)">
                <mask id="mask-2" fill="white">
                    <use xlink:href="#path-1"></use>
                </mask>
                <g id="Clip-2"></g>
                <path d="M184.985,29.079 C186.805,29.079 188.367,28.456 189.664,27.207 C190.959,25.961 191.608,24.377 191.608,22.455 C191.608,20.727 190.959,19.241 189.664,17.992 C188.367,16.744 186.805,16.119 184.985,16.119 C183.158,16.119 181.621,16.744 180.375,17.992 C179.125,19.241 178.504,20.727 178.504,22.455 C178.504,24.377 179.125,25.961 180.375,27.207 C181.621,28.456 183.158,29.079 184.985,29.079" id="Fill-1" fill="#FFFFFF" mask="url(#mask-2)"></path>
                <path d="M243.673,54.41 C239.883,53.285 240.073,50.748 240.306,49.793 C240.825,47.658 242.489,46.044 243.914,44.67 C244.29,45.033 244.6,45.485 244.826,46.071 C246.254,49.226 244.966,52.282 243.673,54.41 Z M234.457,63.495 C231.385,65.223 228.026,66.088 224.377,66.088 C221.498,66.088 219.578,64.913 218.617,62.559 C217.658,60.208 217.682,57.592 218.69,54.712 C219.698,51.831 221.807,49.217 225.026,46.863 C228.211,44.533 232.51,43.361 237.913,43.34 C237.759,43.517 237.601,43.687 237.451,43.877 C236.571,45.016 235.783,46.271 235.089,47.645 C234.396,49.019 234.107,50.389 234.218,51.753 C234.329,53.117 235.014,54.391 236.27,55.57 C237.323,56.557 239.026,57.351 241.362,57.959 C239.523,60.075 237.239,61.931 234.457,63.495 Z M382.631,44.271 C382.248,43.84 381.672,43.576 380.905,43.479 C380.135,43.385 379.367,43.576 378.6,44.055 C378.026,44.344 376.561,45.063 374.209,46.216 C371.854,47.367 369,48.713 365.641,50.247 C362.28,51.784 358.631,53.368 354.698,55 C350.76,56.633 346.944,58.145 343.248,59.535 C339.553,60.929 336.194,62.08 333.168,62.991 C330.145,63.905 327.862,64.312 326.328,64.216 C325.944,64.216 325.92,63.712 326.256,62.703 C326.592,61.695 327.168,60.377 327.985,58.743 C328.799,57.112 329.735,55.287 330.791,53.271 C331.848,51.256 332.903,49.192 333.959,47.079 C335.016,44.969 335.52,43.241 335.473,41.895 C335.424,40.553 334.944,39.569 334.033,38.943 C333.119,38.32 331.823,38.056 330.145,38.151 C328.463,38.248 326.567,38.633 324.455,39.304 C322.729,39.976 320.615,40.96 318.119,42.256 C315.623,43.552 313.057,45.017 310.416,46.647 C307.776,48.281 305.209,50.009 302.713,51.831 C300.215,53.656 298.151,55.384 296.522,57.015 C297.672,54.905 298.799,53.249 299.905,52.048 C301.006,50.848 301.752,49.432 302.137,47.8 C302.326,47.032 302.112,46.264 301.489,45.495 C300.862,44.728 300.071,44.105 299.112,43.623 C298.151,43.144 297.119,42.856 296.018,42.76 C295.877,42.747 295.74,42.74 295.606,42.739 C295.58,42.739 295.561,42.752 295.537,42.754 C294.578,42.68 292.119,44.119 290.617,44.775 C289.08,45.448 287.018,46.337 284.424,47.439 C281.834,48.544 279,49.624 275.928,50.68 C272.856,51.737 269.713,52.673 266.498,53.487 C263.28,54.305 260.377,54.712 257.785,54.712 C258.84,52.6 259.369,50.488 259.369,48.376 C259.369,46.264 258.744,44.415 257.498,42.831 C256.248,41.247 254.377,39.951 251.881,38.943 C249.385,37.935 246.217,37.431 242.377,37.431 C237,37.431 232.369,38.273 228.483,39.951 C227.932,40.189 226.561,40.865 226.434,40.939 C225.785,41.267 219.649,44.618 217.539,45.769 C215.352,46.965 211.971,48.64 208.756,50.031 C205.537,51.424 202.08,52.864 198.387,54.351 C194.69,55.841 191.186,57.209 187.875,58.455 C184.563,59.704 181.658,60.665 179.162,61.336 C176.666,62.008 174.987,62.249 174.123,62.055 C173.547,61.864 173.522,61.119 174.051,59.823 C174.576,58.527 175.323,56.969 176.283,55.143 C177.24,53.321 178.276,51.377 179.379,49.311 C180.483,47.248 181.323,45.329 181.899,43.552 C182.475,41.776 182.643,40.311 182.405,39.159 C182.162,38.008 181.178,37.431 179.451,37.431 C177.381,37.431 175.043,37.855 173.341,38.608 C173.312,38.61 165.72,41.873 161.414,43.387 C159.676,43.976 157.669,44.619 155.357,45.32 C152.668,46.137 149.811,46.968 146.785,47.813 C143.759,48.658 140.86,49.391 138.086,50.01 C135.314,50.631 132.784,51.117 130.507,51.474 C128.229,51.833 126.565,51.934 125.515,51.782 C125.459,51.779 125.417,51.758 125.367,51.747 C125.367,51.747 125.067,51.568 124.941,51.454 C124.842,51.294 124.693,50.989 124.693,50.989 C124.671,50.898 124.648,50.81 124.639,50.7 C124.59,50.077 124.688,49.309 124.926,48.395 C125.166,47.485 125.526,46.501 126.008,45.444 C126.008,45.444 127.315,42.847 127.268,41.502 C127.219,40.16 126.739,39.152 125.828,38.478 C124.914,37.808 123.594,37.519 121.867,37.615 C120.139,37.711 118.219,38.096 116.108,38.767 C114.379,39.439 112.266,40.424 109.772,41.719 C107.274,43.015 104.707,44.48 102.067,46.11 C99.426,47.745 96.883,49.472 94.436,51.294 C91.988,53.12 89.899,54.848 88.172,56.479 C89.227,54.37 90.354,52.712 91.555,51.511 C92.754,50.311 93.594,48.895 94.074,47.263 C94.17,46.495 93.906,45.727 93.283,44.959 C92.656,44.191 91.844,43.568 90.836,43.086 C89.828,42.607 88.77,42.32 87.668,42.222 C86.563,42.129 85.578,42.367 84.715,42.943 C83.563,43.806 82.244,45.392 80.754,47.694 C79.268,49.999 77.828,52.425 76.436,54.968 C75.045,57.513 73.821,59.936 72.762,62.239 C71.707,64.544 71.035,66.177 70.746,67.136 C70.555,67.905 70.867,68.698 71.684,69.513 C72.5,70.329 73.485,70.952 74.635,71.384 C75.787,71.815 76.965,71.985 78.164,71.888 C79.363,71.794 80.25,71.264 80.828,70.304 C82.363,67.618 84.617,64.903 87.594,62.167 C90.57,59.433 93.666,56.911 96.883,54.608 C100.098,52.304 103.149,50.337 106.028,48.702 C108.906,47.071 110.971,46.063 112.219,45.679 C111.067,47.694 111.313,47.236 110.498,49.156 C109.68,51.078 109.807,51.085 109.664,52.573 C109.52,54.061 109.781,55.309 110.455,56.317 C111.125,57.325 112.375,57.878 114.199,57.973 C116.215,58.261 118.807,58.167 121.975,57.685 C121.975,57.685 128.475,56.796 132.06,56.101 C135.752,55.389 139.523,54.536 143.375,53.541 C147.226,52.549 150.813,51.589 154.131,50.662 C157.235,49.797 159.925,48.949 162.231,48.123 C162.219,48.137 165.117,47.055 165.785,46.788 C166.632,46.462 167.501,46.123 168.26,45.821 C167.909,46.377 167.165,47.697 166.635,48.592 C165.865,49.888 165.002,51.399 164.043,53.128 C163.082,54.855 162.17,56.68 161.307,58.599 C160.444,60.521 159.846,62.296 159.506,63.928 C159.172,65.56 159.172,66.904 159.506,67.96 C159.846,69.016 160.78,69.544 162.315,69.544 C165.1,69.544 168.457,69.064 172.395,68.103 C176.33,67.145 180.459,65.921 184.78,64.431 C189.1,62.944 193.442,61.336 197.811,59.607 C202.178,57.88 206.162,56.223 209.764,54.639 C211.559,53.849 213.215,53.108 214.737,52.414 C214.426,53.097 214.158,53.79 213.938,54.495 C213.026,57.425 212.881,60.161 213.506,62.703 C214.131,65.248 215.545,67.361 217.752,69.039 C219.963,70.721 222.938,71.559 226.682,71.559 C232.92,71.559 238.416,70.385 243.17,68.031 C247.92,65.681 251.688,62.969 254.473,59.895 C258.408,59.895 262.369,59.416 266.354,58.455 C270.336,57.497 274.104,56.393 277.658,55.143 C281.209,53.897 284.377,52.648 287.162,51.399 C287.365,51.307 287.545,51.229 287.742,51.141 C287.346,51.891 286.951,52.643 286.584,53.415 C285.627,55.431 284.809,57.352 284.137,59.176 C283.467,61 282.985,62.392 282.698,63.351 C282.408,64.216 282.674,65.032 283.489,65.8 C284.305,66.569 285.287,67.168 286.44,67.599 C287.592,68.031 288.768,68.2 289.969,68.103 C291.17,68.009 292.057,67.48 292.631,66.519 C293.592,64.889 295.391,62.969 298.033,60.76 C300.672,58.553 303.504,56.439 306.53,54.424 C309.553,52.407 312.408,50.607 315.096,49.023 C317.783,47.439 319.655,46.504 320.713,46.216 C319.561,48.137 318.455,50.009 317.401,51.831 C316.44,53.465 315.504,55.24 314.592,57.159 C313.678,59.081 312.936,60.903 312.362,62.632 C311.209,66.281 311.256,68.895 312.504,70.479 C313.752,72.063 316.682,72.472 321.287,71.703 C323.494,71.321 326.401,70.529 330,69.327 C333.6,68.128 337.44,66.735 341.522,65.151 C345.6,63.567 349.776,61.911 354.049,60.183 C358.319,58.455 362.28,56.777 365.928,55.143 C369.576,53.513 372.698,52.072 375.287,50.823 C377.881,49.577 379.608,48.713 380.473,48.231 C381.719,47.464 382.489,46.72 382.776,46 C383.065,45.279 383.014,44.703 382.631,44.271 L382.631,44.271 Z" id="Fill-3" fill="#FFFFFF" mask="url(#mask-2)"></path>
                <path d="M72.664,36.606 C75.428,33.669 77.393,30.45 78.561,26.951 C79.727,23.451 80.072,20.039 79.598,16.713 C79.121,13.388 77.825,10.362 75.709,7.64 C73.591,4.918 70.568,2.932 66.637,1.679 C62.705,0.427 57.909,0.103 52.252,0.707 C46.592,1.312 40.004,3.257 32.489,6.538 C27.647,8.7 23.458,11.075 19.916,13.667 C16.372,16.259 13.522,18.916 11.363,21.637 C9.202,24.359 7.711,27.06 6.891,29.737 C6.07,32.416 5.92,34.879 6.438,37.124 C6.957,39.457 7.797,40.668 8.965,40.753 C10.132,40.84 10.715,40.062 10.715,38.421 C10.627,36.347 10.951,34.467 11.686,32.783 C12.42,31.097 13.715,29.523 15.574,28.052 C17.43,26.584 19.916,25.116 23.027,23.646 C26.137,22.178 30.026,20.665 34.691,19.11 C42.209,16.605 48.795,15.18 54.453,14.833 C60.113,14.489 64.477,15.008 67.544,16.388 C70.612,17.772 72.211,19.974 72.339,22.997 C72.469,26.024 70.805,29.652 67.349,33.885 C65.018,36.736 61.99,39.221 58.279,41.336 C54.563,43.454 50.717,45.246 46.744,46.714 C42.768,48.186 38.945,49.328 35.274,50.149 C31.6,50.972 28.684,51.51 26.526,51.77 C27.994,48.832 29.418,46.046 30.804,43.41 C32.184,40.775 33.438,38.356 34.563,36.152 C35.684,33.949 36.654,32.07 37.477,30.515 C38.297,28.959 38.879,27.793 39.227,27.016 C39.744,25.893 39.505,25.072 38.514,24.553 C37.519,24.035 36.2,23.863 34.563,24.035 C32.918,24.209 31.191,24.769 29.377,25.72 C27.563,26.671 26.137,28.052 25.102,29.867 C24.581,30.644 23.63,32.588 22.25,35.699 C20.865,38.809 19.288,42.547 17.518,46.91 C15.746,51.272 13.844,55.939 11.817,60.905 C9.783,65.874 7.928,70.542 6.244,74.903 C4.56,79.267 3.154,83.047 2.031,86.243 C0.906,89.438 0.26,91.47 0.088,92.333 C-0.088,93.284 -2.71050543e-20,93.954 0.346,94.343 C0.691,94.731 1.125,94.945 1.642,94.991 C2.162,95.033 2.679,94.927 3.199,94.667 C3.716,94.407 4.106,94.061 4.364,93.63 L23.416,57.6 C25.23,57.517 28.081,57.147 31.969,56.501 C35.856,55.851 40.176,54.749 44.93,53.196 C49.68,51.639 54.52,49.523 59.444,46.845 C64.369,44.167 68.776,40.753 72.664,36.606" id="Fill-4" fill="#FFFFFF" mask="url(#mask-2)"></path>
            </g>
        </g>
    </g>
</svg>